<svg width="109" height="110" viewBox="0 0 109 110" fill="none" xmlns="http://www.w3.org/2000/svg">
<path fill-rule="evenodd" clip-rule="evenodd" d="M30.2123 93.274C15.5247 88.201 12.2493 76.3411 11.8714 62.0266C11.7833 58.6921 11.8571 55.3783 11.9444 52.0459C18.4281 50.9161 24.6369 48.8354 30.3296 45.4558C33.7615 47.4916 37.2386 48.9899 41.0274 50.1868C41.2911 50.2701 41.3438 50.5945 41.8973 50.5945C42.1653 50.5945 42.1093 50.5198 42.2955 50.5728C44.5268 51.2088 46.4127 51.6442 48.717 52.0459C48.927 60.0044 49.1035 69.0364 46.7543 76.6433C44.1031 85.2276 38.7583 90.4041 30.4469 93.274H30.2123ZM42.217 61.2528C42.0282 61.0602 41.7722 60.952 41.5054 60.952C41.2385 60.9521 40.9826 61.0603 40.7938 61.253L27.8755 74.4476L21.7729 68.2147C21.6796 68.1192 21.5687 68.0434 21.4466 67.9916C21.3245 67.9399 21.1936 67.9132 21.0614 67.9132C20.9292 67.9132 20.7983 67.9398 20.6762 67.9915C20.5541 68.0432 20.4432 68.119 20.3498 68.2145C20.2561 68.3101 20.1818 68.4236 20.1311 68.5486C20.0804 68.6735 20.0543 68.8075 20.0543 68.9427C20.0543 69.078 20.0804 69.2119 20.1311 69.3368C20.1818 69.4618 20.2561 69.5753 20.3498 69.6709L27.1634 76.6314C27.2569 76.7271 27.368 76.803 27.4903 76.8549C27.6126 76.9067 27.7438 76.9333 27.8762 76.9333C28.0086 76.9333 28.1397 76.9067 28.262 76.8549C28.3843 76.803 28.4954 76.7271 28.589 76.6314L42.2172 62.7081C42.3109 62.6126 42.3852 62.4992 42.4359 62.3743C42.4865 62.2495 42.5126 62.1156 42.5126 61.9804C42.5126 61.8452 42.4865 61.7114 42.4357 61.5865C42.385 61.4617 42.3107 61.3483 42.217 61.2528ZM48.9985 38.5526V28.5146C48.9993 28.341 49.0672 28.1747 49.1874 28.0519C49.3075 27.9292 49.4703 27.8598 49.6403 27.859H73.5438V38.5526H48.9985ZM75.5583 17.2876C75.5591 17.114 75.627 16.9477 75.7472 16.8249C75.8674 16.7021 76.0302 16.6328 76.2001 16.632H87.5561C87.7261 16.6328 87.8888 16.7021 88.009 16.8249C88.1292 16.9477 88.1971 17.114 88.1979 17.2876V38.5526H75.5583V17.2876ZM27.2126 33.1004C27.2126 33.6373 26.7711 34.0661 26.3507 34.32C25.7984 34.6537 25.1227 34.8074 24.4848 34.8074H14.1753C13.5378 34.8074 12.8623 34.6535 12.3104 34.3198C11.8902 34.0659 11.4487 33.6373 11.4487 33.1004V31.6779C11.4487 31.1415 11.8904 30.713 12.3104 30.4594C12.8625 30.1259 13.5378 29.972 14.1753 29.972L23.5105 29.9779C23.6856 30.0096 23.7316 30.0622 23.9325 30.0597L26.4171 30.0399C26.6916 30.1134 27.145 30.3491 27.2126 30.5771V33.1004Z" fill="#C4B5FD"/>
<path fill-rule="evenodd" clip-rule="evenodd" d="M42.4763 60.9885C42.604 61.1188 42.7053 61.2734 42.7744 61.4437C42.8436 61.6139 42.8792 61.7964 42.8792 61.9808C42.8792 62.1651 42.8436 62.3476 42.7744 62.5178C42.7053 62.6881 42.604 62.8427 42.4763 62.973L28.8481 76.8962C28.7205 77.0266 28.569 77.13 28.4023 77.2006C28.2355 77.2712 28.0568 77.3075 27.8763 77.3075C27.6958 77.3075 27.5171 77.2712 27.3504 77.2006C27.1836 77.13 27.0321 77.0266 26.9045 76.8962L20.0909 69.9357C19.9632 69.8054 19.8619 69.6507 19.7928 69.4803C19.7237 69.31 19.6881 69.1274 19.6881 68.943C19.6881 68.7586 19.7237 68.576 19.7928 68.4057C19.8619 68.2353 19.9632 68.0806 20.0909 67.9503C20.6256 67.4016 21.4961 67.4016 22.0323 67.9503L27.8758 73.9185L40.5352 60.9885C41.0709 60.4411 41.9414 60.4411 42.4763 60.9885ZM77.94 60.1774V48.9503C77.94 48.1746 78.5559 47.5466 79.3142 47.5466C80.0725 47.5466 80.6871 48.1744 80.6871 48.9503V60.1774C80.6871 60.952 80.0725 61.5799 79.3142 61.5799C78.5559 61.5799 77.94 60.9518 77.94 60.1774ZM66.9499 60.1774V48.9503C66.9499 48.5782 67.0946 48.2213 67.3522 47.9582C67.6098 47.695 67.9592 47.5472 68.3234 47.5472C68.6877 47.5472 69.0371 47.695 69.2947 47.9582C69.5522 48.2213 69.6969 48.5782 69.6969 48.9503V60.1774C69.6969 60.5493 69.5523 60.9061 69.2948 61.1691C69.0374 61.4321 68.6882 61.5799 68.324 61.5799C68.1437 61.5799 67.9651 61.5437 67.7984 61.4733C67.6317 61.4029 67.4802 61.2996 67.3526 61.1693C67.225 61.0391 67.1238 60.8845 67.0547 60.7143C66.9856 60.5441 66.95 60.3616 66.9499 60.1774ZM55.9598 60.1774V48.9503C55.9597 48.7661 55.9951 48.5836 56.0641 48.4133C56.133 48.243 56.2341 48.0883 56.3616 47.9579C56.4891 47.8276 56.6405 47.7242 56.8071 47.6536C56.9737 47.583 57.1523 47.5466 57.3327 47.5466C57.6971 47.5466 58.0466 47.6945 58.3043 47.9578C58.562 48.221 58.7068 48.578 58.7068 48.9503V60.1774C58.7065 60.5495 58.5616 60.9062 58.304 61.1692C58.0463 61.4322 57.6969 61.5799 57.3327 61.5799C56.9686 61.5798 56.6194 61.432 56.362 61.169C56.1045 60.906 55.9599 60.5493 55.9598 60.1774ZM84.0383 83.1447C84.0383 85.2863 82.3308 87.0306 80.2309 87.0306C78.1322 87.0306 76.4247 85.2863 76.4247 83.1447C76.4247 80.9995 78.1322 79.2552 80.2309 79.2552C82.3308 79.2552 84.0383 80.9995 84.0383 83.1447ZM59.8228 83.1447C59.8228 85.2863 58.1153 87.0306 56.0166 87.0306C53.9192 87.0306 52.2104 85.2863 52.2104 83.1447C52.2104 80.9995 53.9189 79.2552 56.0166 79.2552C58.1153 79.2552 59.8228 80.9995 59.8228 83.1447ZM30.3297 92.9195C38.7374 90.0164 43.8514 84.8002 46.4051 76.5306C48.689 69.136 48.5686 60.306 48.3591 52.3629C46.6508 52.0645 44.9563 51.6885 43.2808 51.236C42.9174 51.1389 42.5585 51.0362 42.1973 50.9333C42.0989 50.9563 41.9984 50.9682 41.8975 50.9688C41.5294 50.9688 41.1762 50.8116 40.9192 50.5443C37.0669 49.3274 33.4551 47.7429 30.3297 45.8887C25.0781 49.0055 18.632 51.2596 12.3026 52.3631C12.0943 60.3062 11.9703 69.1362 14.2554 76.5308C16.8103 84.8002 21.9243 90.0164 30.3297 92.9195ZM95.635 40.9857H40.256L42.8722 48.211C45.2528 48.8994 47.4857 49.4007 49.9033 49.7707C50.5608 49.8724 51.0562 50.4411 51.0736 51.1199C51.2206 56.5501 51.3782 62.4439 50.8028 68.1403L80.9534 68.1426C83.7501 68.1426 86.1208 66.5945 87.2959 64.0013L96.854 42.9378C96.9514 42.7287 96.9951 42.4978 96.9811 42.2667C96.967 42.0356 96.8957 41.812 96.7738 41.6168C96.652 41.4216 96.4835 41.2613 96.2843 41.1509C96.0851 41.0405 95.8616 40.9837 95.635 40.9857ZM49.3651 28.5147C49.3651 28.361 49.4914 28.2332 49.6406 28.2332H73.1777V38.1785H49.3651V28.5147ZM76.2003 17.0062H87.5563C87.7057 17.0062 87.8318 17.134 87.8318 17.2876V38.1785H75.9248V17.2876C75.9248 17.134 76.0509 17.0062 76.2003 17.0062ZM26.8465 30.6906V33.1005C26.8465 33.7167 25.8151 34.4333 24.485 34.4333H14.1755C12.8465 34.4333 11.8151 33.7167 11.8151 33.1005V31.678C11.8151 31.0631 12.8465 30.3465 14.1755 30.3465H23.4466C23.5636 30.3678 23.6414 30.436 23.9374 30.434L26.3243 30.402C26.6114 30.4788 26.7956 30.6125 26.8465 30.6906ZM80.9534 70.949C84.8475 70.949 88.1512 68.7932 89.7892 65.1829L99.3474 44.1183C100.608 41.3426 98.6271 38.1785 95.635 38.1785H90.5786V17.2876C90.5786 15.5847 89.2231 14.2 87.5563 14.2H76.2003C74.5332 14.2 73.1777 15.5847 73.1777 17.2876V25.427H49.6406C47.9726 25.427 46.6181 26.8117 46.6181 28.5147V38.1785H39.2418L37.0041 31.9997C36.0214 29.2835 33.5673 27.5392 30.7381 27.5392C30.7091 27.5392 30.6778 27.5392 30.649 27.5415L26.5695 27.5935C26.3427 27.5583 26.1137 27.5401 25.8842 27.539H14.1755C11.3115 27.539 9.06689 29.3578 9.06689 31.678V33.1005C9.06689 35.4207 11.3115 37.2395 14.1755 37.2395H24.485C27.3499 37.2395 29.5933 35.4207 29.5933 33.1005L29.5772 30.3607L30.7383 30.3465C32.4294 30.3465 33.8395 31.3493 34.4276 32.9729L39.5498 47.1256C36.4441 45.9975 33.5571 44.6199 31.0451 43.0576C30.8297 42.9237 30.5824 42.8528 30.3302 42.8528C30.0781 42.8528 29.8308 42.9237 29.6154 43.0576C24.2143 46.4139 17.3774 48.7597 10.7582 49.7709C10.4392 49.8198 10.1472 49.9818 9.93321 50.2284C9.71926 50.4751 9.59702 50.7907 9.58789 51.1202C9.35877 59.58 9.10062 69.1682 11.6357 77.375C14.4833 86.594 20.4611 92.599 29.907 95.7316C30.1828 95.8228 30.4797 95.8228 30.7555 95.7316C39.56 92.8107 45.3492 87.3935 48.4018 79.2055C49.0062 79.2861 50.049 79.2552 50.6857 79.2552C47.599 83.6688 50.6924 89.8366 56.0164 89.8366C61.3537 89.8366 64.4275 83.6485 61.3459 79.2552H74.9012C71.8198 83.6481 74.8932 89.8366 80.2307 89.8366C85.5563 89.8366 88.6473 83.6679 85.5614 79.2552H90.8053C91.5658 79.2552 92.1794 78.6273 92.1794 77.8527C92.1794 77.0781 91.5658 76.449 90.8053 76.449H49.2979C49.798 74.6656 50.1741 72.8244 50.4555 70.9478L80.9534 70.949Z" fill="#8B5CF6"/>
</svg>
