<svg width="91" height="92" viewBox="0 0 91 92" fill="none" xmlns="http://www.w3.org/2000/svg">
<path d="M42.7193 0.666626L0.0668945 22.2277V71.7571L48.6526 91.3333H48.6721V91.3236L90.7336 66.5569V17.0354L42.7193 0.666626Z" fill="#DDD6FE"/>
<path d="M90.7336 17.0354L42.7193 0.666626L0.0668945 22.2277V71.7571L48.6526 91.3333H48.6721V41.7884L48.6624 41.7845L90.7336 17.0354Z" fill="#C4B5FD"/>
<path d="M48.6721 41.7883V91.3332H48.6526L0.0668945 71.757V22.2316L5.78171 24.5324L48.6721 41.7883Z" fill="#8B5CF6"/>
<path d="M48.6721 41.7883V84.5283L16.7082 71.64C13.4816 70.3378 10.7178 68.1013 8.77167 65.2178C6.82549 62.3342 5.78567 58.935 5.78564 55.4565V24.5323L48.6721 41.7883Z" fill="#A78BFA"/>
<path d="M70.3029 10.0647L69.4447 10.5326L27.9391 33.443L27.8611 49.373L21.2881 46.9163L16.9971 45.2979V29.0559L60.2581 6.65247L70.3029 10.0647Z" fill="#5B21B6"/>
<path d="M69.493 10.5327L27.9875 33.4431L27.9094 49.3731L21.3364 46.9164V31.2788L64.6169 8.87537L69.493 10.5327Z" fill="#6D28D9"/>
</svg>
