<svg width="14" height="14" viewBox="0 0 14 14" fill="none" xmlns="http://www.w3.org/2000/svg">
<path d="M8.5735 8.48683C8.12784 8.84614 7.57263 9.04209 7.00017 9.04209C6.4277 9.04209 5.87249 8.84614 5.42683 8.48683C5.29069 8.37367 5.11517 8.31923 4.93888 8.33548C4.7626 8.35174 4.59999 8.43735 4.48683 8.5735C4.37367 8.70964 4.31923 8.88516 4.33549 9.06145C4.35174 9.23773 4.43735 9.40034 4.5735 9.5135C5.25439 10.0819 6.11321 10.3933 7.00017 10.3933C7.88713 10.3933 8.74594 10.0819 9.42683 9.5135C9.56298 9.40034 9.64859 9.23773 9.66485 9.06145C9.6811 8.88516 9.62666 8.70964 9.5135 8.5735C9.45747 8.50608 9.38871 8.45037 9.31115 8.40953C9.23358 8.36869 9.14874 8.34353 9.06145 8.33548C8.88516 8.31923 8.70964 8.37367 8.5735 8.48683ZM5.14017 6.02683C5.26507 6.151 5.43404 6.22069 5.61017 6.22069C5.78629 6.22069 5.95526 6.151 6.08017 6.02683C6.20433 5.90192 6.27403 5.73295 6.27403 5.55683C6.27403 5.38071 6.20433 5.21174 6.08017 5.08683C5.69865 4.72482 5.19276 4.52302 4.66683 4.52302C4.1409 4.52302 3.63502 4.72482 3.2535 5.08683C3.18371 5.14659 3.12703 5.22014 3.08702 5.30285C3.047 5.38556 3.02451 5.47565 3.02097 5.56746C3.01742 5.65927 3.03289 5.75083 3.06641 5.83638C3.09992 5.92193 3.15076 5.99963 3.21573 6.0646C3.2807 6.12957 3.3584 6.18041 3.44395 6.21392C3.5295 6.24744 3.62106 6.26291 3.71287 6.25936C3.80468 6.25582 3.89477 6.23333 3.97748 6.19331C4.06019 6.1533 4.13373 6.09662 4.1935 6.02683C4.25547 5.96434 4.32921 5.91475 4.41045 5.8809C4.49169 5.84706 4.57882 5.82963 4.66683 5.82963C4.75484 5.82963 4.84198 5.84706 4.92322 5.8809C5.00446 5.91475 5.07819 5.96434 5.14017 6.02683ZM10.7468 5.08683C10.3653 4.72482 9.85943 4.52302 9.3335 4.52302C8.80757 4.52302 8.30169 4.72482 7.92017 5.08683C7.81095 5.21436 7.75388 5.37841 7.76036 5.5462C7.76684 5.71398 7.83639 5.87314 7.95512 5.99187C8.07385 6.1106 8.23301 6.18016 8.4008 6.18664C8.56858 6.19312 8.73263 6.13605 8.86017 6.02683C8.92214 5.96434 8.99588 5.91475 9.07712 5.8809C9.15835 5.84706 9.24549 5.82963 9.3335 5.82963C9.42151 5.82963 9.50864 5.84706 9.58988 5.8809C9.67112 5.91475 9.74486 5.96434 9.80683 6.02683C9.93174 6.151 10.1007 6.22069 10.2768 6.22069C10.453 6.22069 10.6219 6.151 10.7468 6.02683C10.871 5.90192 10.9407 5.73295 10.9407 5.55683C10.9407 5.38071 10.871 5.21174 10.7468 5.08683ZM7.00017 0.333496C5.68162 0.333496 4.39269 0.724489 3.29636 1.45703C2.20004 2.18957 1.34555 3.23077 0.840969 4.44894C0.336385 5.66711 0.204362 7.00756 0.461597 8.30077C0.718832 9.59397 1.35377 10.7819 2.28612 11.7142C3.21847 12.6466 4.40636 13.2815 5.69956 13.5387C6.99277 13.796 8.33322 13.6639 9.55139 13.1594C10.7696 12.6548 11.8108 11.8003 12.5433 10.704C13.2758 9.60764 13.6668 8.31871 13.6668 7.00016C13.6668 6.12468 13.4944 5.25778 13.1594 4.44894C12.8243 3.6401 12.3333 2.90517 11.7142 2.28612C11.0952 1.66706 10.3602 1.176 9.55139 0.840966C8.74255 0.505935 7.87565 0.333496 7.00017 0.333496ZM7.00017 12.3335C5.94533 12.3335 4.91419 12.0207 4.03712 11.4347C3.16006 10.8486 2.47648 10.0157 2.07281 9.04114C1.66914 8.0666 1.56352 6.99425 1.76931 5.95968C1.9751 4.92512 2.48305 3.97481 3.22893 3.22893C3.97481 2.48305 4.92512 1.9751 5.95968 1.76931C6.99425 1.56352 8.06661 1.66914 9.04114 2.07281C10.0157 2.47647 10.8486 3.16006 11.4347 4.03712C12.0207 4.91418 12.3335 5.94533 12.3335 7.00016C12.3335 8.41465 11.7716 9.77121 10.7714 10.7714C9.77121 11.7716 8.41465 12.3335 7.00017 12.3335Z" fill="#F9FAFB"/>
</svg>
